
<svg width="8px" height="16px" viewBox="0 0 8 16" version="1.1" xmlns="http://www.w3.org/2000/svg" xmlns:xlink="http://www.w3.org/1999/xlink">
    <g id="Symbols" stroke="none" stroke-width="1" fill="none" fill-rule="evenodd">
        <g id="Menu-Bar-Open/Columns" transform="translate(-682.000000, -120.000000)" fill="#8A8882" fill-rule="nonzero">
            <g id="Menu-Open" transform="translate(0.000000, 72.000000)">
                <g id="Menu-Links" transform="translate(160.000000, 42.000000)">
                    <g id="Group" transform="translate(518.500000, 10.000000)">
                        <g id="Path" transform="translate(7.500000, 4.000000) rotate(-90.000000) translate(-7.500000, -4.000000) ">
                            <path d="M14.1998092,0.237903236 C14.382876,0.0548535132 14.679672,0.054867357 14.8627218,0.237934157 C15.0228903,0.398117607 15.0429007,0.64537504 14.9227603,0.827315545 L14.8626908,0.900846764 L8.16294226,7.59997018 C7.98720591,7.775957 7.7487059,7.87484644 7.5,7.87484644 C7.29274509,7.87484644 7.09257759,7.80617322 6.93005839,7.68158351 L6.83730916,7.60022176 L0.137309157,0.900846764 C-0.045757643,0.717797041 -0.0457714868,0.421000957 0.137278236,0.237934157 C0.297446744,0.077750707 0.544702309,0.0577171766 0.726654021,0.177840674 L0.800190843,0.237903236 L7.5,6.937 L14.1998092,0.237903236 Z"></path>
                        </g>
                    </g>
                </g>
            </g>
        </g>
    </g>
</svg>