
<svg width="249px" height="253px" viewBox="0 0 249 253" version="1.1" xmlns="http://www.w3.org/2000/svg" xmlns:xlink="http://www.w3.org/1999/xlink">
    <defs>
        <polygon id="path-dnj1owkchb-1" points="0 0 249 0 249 252.792453 0 252.792453"></polygon>
    </defs>
    <g id="Design" stroke="none" stroke-width="1" fill="none" fill-rule="evenodd">
        <g id="Unternehmen-/-Forschung-und-Entwicklung" transform="translate(-810.000000, -1436.000000)">
            <g id="Slider-with-Tabs" transform="translate(160.000000, 1352.000000)">
                <g id="Card-1" transform="translate(1.000000, 0.000000)">
                    <g id="Content-Card-1" transform="translate(41.000000, 84.128931)">
                        <g id="Montagearten_Raum_02" transform="translate(608.000000, 0.000000)">
                            <path d="M155.777349,40.1471593 L124.742076,22.1291973 C124.604372,22.0491774 124.431795,22.0491774 124.294091,22.1291973 L62.2235455,58.1642223 C62.0858415,58.2442421 62,58.3925936 62,58.5526334 L62,72.6909794 C62,72.8510191 62.0840531,72.9993706 62.2235455,73.0802896 L93.257924,91.2241256 C93.2588182,91.2241256 93.2588182,91.2250247 93.2588182,91.2268229 C93.3285644,91.2663833 93.4072524,91.2861635 93.4832579,91.2861635 C93.5601575,91.2861635 93.6388456,91.2663833 93.7068034,91.2268229 L155.777349,55.1926971 C155.914159,55.1117781 156,54.9634266 156,54.8033868 L156,40.5373687 C156,40.3755307 155.914159,40.2271792 155.777349,40.1471593 L155.777349,40.1471593 Z M124.517636,23.0399855 L154.657833,40.5373687 L93.4832579,76.0500166 L63.3430615,58.5526334 L124.517636,23.0399855 Z M62.8959705,72.4311395 L62.8959705,59.3330521 L93.0352726,76.8304353 L93.0352726,90.0534976 L62.8959705,72.4311395 Z M93.9312431,90.0561949 L93.9312431,76.8304353 L155.105818,41.3177874 L155.105818,54.543547 L93.9312431,90.0561949 L93.9312431,90.0561949 Z" id="Fill-1" fill="#0E2249"></path>
                            <path d="M73.0050627,57.5901931 C73.6804802,57.4807511 74.3638647,57.6067474 74.8286016,57.8854107 C75.0552161,58.0206038 75.225177,58.1907448 75.316354,58.3875565 C75.4987079,58.7949752 75.2924532,59.2060726 74.8312572,59.4847359 C74.6064131,59.6208487 74.3249153,59.7220136 73.9920752,59.7799535 C73.3219689,59.8847971 72.6385845,59.7588008 72.1738476,59.4801375 C71.9490035,59.3449444 71.7781574,59.1748034 71.6816692,58.9752326 C71.5037413,58.570573 71.7108812,58.161315 72.171192,57.881732 C72.3960361,57.7465389 72.6775338,57.6435346 73.0050627,57.5901931 M75.266782,57.6214623 C74.6489033,57.2499112 73.7353634,57.0880473 72.8457243,57.2305979 C72.4110847,57.302333 72.0277875,57.4375261 71.7303559,57.6168639 C71.1177884,57.9865756 70.8442576,58.5337858 71.0894616,59.0736385 C71.2098506,59.3339082 71.4364651,59.5656678 71.7365524,59.7459253 C72.3473494,60.112878 73.2617745,60.2820993 74.1584953,60.1367897 C74.5913645,60.0650546 74.9755469,59.9289418 75.2720933,59.7486843 C75.8802347,59.3817316 76.1528803,58.8290034 75.9138728,58.2919097 C75.7925986,58.03164 75.565984,57.8008001 75.266782,57.6214623" id="Fill-2" fill="#0E2249"></path>
                            <path d="M93.0067479,68.6257095 C93.6827645,68.5161414 94.3649749,68.6422828 94.824206,68.9175842 C95.0507246,69.0538538 95.2259226,69.226953 95.311752,69.4267536 C95.5002226,69.8318794 95.2931704,70.2434504 94.8330544,70.521514 C94.6074206,70.6587043 94.3269268,70.7599858 93.9880337,70.8133887 C93.3235201,70.9229568 92.6351158,70.7940531 92.1758847,70.517831 C91.9511357,70.3824822 91.7750529,70.209383 91.6847993,70.0114238 C91.5007529,69.6044565 91.7078051,69.1928856 92.1679211,68.914822 C92.3935549,68.7776316 92.6740487,68.6763502 93.0067479,68.6257095 M95.2613162,68.6524109 C94.6507777,68.2850355 93.7367396,68.1220645 92.847477,68.2657 C92.4077123,68.332914 92.0298863,68.4737873 91.7334655,68.6524109 C91.1211573,69.0225486 90.8468574,69.5703891 91.0857637,70.1081015 C91.2122956,70.372354 91.4388143,70.6025391 91.7387745,70.783925 C92.3501978,71.1513004 93.258042,71.316113 94.1543833,71.170636 C94.5932632,71.1025012 94.9702043,70.9625486 95.2675101,70.783925 C95.875394,70.4165496 96.1541181,69.8659468 95.9143269,69.3282344 C95.7895647,69.0639819 95.5612764,68.8328761 95.2613162,68.6524109" id="Fill-3" fill="#0E2249"></path>
                            <path d="M125.006948,28.4980697 C125.68386,28.3895246 126.366973,28.5146274 126.826813,28.7905895 C127.053631,28.925811 127.229061,29.0996671 127.315004,29.2992797 C127.497522,29.7077037 127.290196,30.1179674 126.835673,30.3939295 C126.60974,30.5291509 126.322673,30.6340165 125.989533,30.6846096 C125.318824,30.7959143 124.634824,30.6708115 124.170555,30.3939295 C123.944622,30.2559484 123.773622,30.0876115 123.683249,29.8833996 C123.498959,29.4823346 123.706285,29.0647119 124.160808,28.7905895 C124.386741,28.6553681 124.68001,28.5523422 125.006948,28.4980697 M127.260072,28.5293454 C126.648725,28.1623157 125.737906,27.9958186 124.847466,28.1393189 C124.407119,28.2138287 124.024363,28.3490501 123.725778,28.5293454 C123.117975,28.8945353 122.844198,29.4418601 123.089622,29.981826 C123.204804,30.2476696 123.436938,30.4739585 123.737296,30.6542538 C124.349529,31.0212834 125.263891,31.19146 126.149901,31.0452001 C126.595564,30.97345 126.973004,30.8354689 127.27159,30.6542538 C127.884709,30.2909036 128.152284,29.7408191 127.913061,29.2054526 C127.799652,28.9396091 127.566631,28.7114804 127.260072,28.5293454" id="Fill-4" fill="#0E2249"></path>
                            <g id="Group-8">
                                <mask id="mask-dnj1owkchb-2" fill="white">
                                    <use xlink:href="#path-dnj1owkchb-1"></use>
                                </mask>
                                <g id="Clip-6"></g>
                                <path d="M143.812363,39.5440025 C144.481163,39.4384946 145.17935,39.5600969 145.641543,39.8283373 C145.868632,39.9606693 146.045851,40.1287666 146.132233,40.3227938 C146.309452,40.715319 146.107298,41.1185738 145.649558,41.3868142 C145.423359,41.518252 145.134823,41.6201833 144.799087,41.6693607 C144.120492,41.7748686 143.432991,41.6532663 142.971689,41.3868142 C142.7446,41.2535881 142.56649,41.0845966 142.481889,40.8914635 C142.290421,40.4980443 142.504152,40.0956836 142.961893,39.8283373 C143.188982,39.6968995 143.477518,39.5931799 143.812363,39.5440025 M146.076129,39.5744031 C145.463434,39.2176433 144.551516,39.0575932 143.652065,39.1970782 L143.652065,39.19529 C143.20323,39.2650325 142.822967,39.3991527 142.524635,39.5744031 C141.913721,39.9302687 141.637652,40.4622789 141.87899,40.9835594 C142.000994,41.2446468 142.234317,41.4646039 142.536212,41.6407484 C143.151579,41.9966141 144.065278,42.1575583 144.961167,42.0198616 C145.409111,41.9501191 145.789374,41.8159988 146.088597,41.6407484 C146.699511,41.2839887 146.973799,40.7519785 146.732461,40.2315921 C146.612237,39.9705048 146.378024,39.7487594 146.076129,39.5744031" id="Fill-5" fill="#0E2249" mask="url(#mask-dnj1owkchb-2)"></path>
                                <path d="M248.553837,71.7990187 L124.928352,0.119814054 C124.652283,-0.0402360628 124.310314,-0.0402360628 124.036026,0.119814054 L0.390949343,71.7990187 C0.115770876,71.9590688 -0.053432712,72.2541333 -0.053432712,72.5751276 L-0.053432712,180.067111 C-0.053432712,180.386317 0.115770876,180.682275 0.392730433,180.842325 L124.639816,252.726287 C124.776069,252.805865 124.929243,252.846101 125.084198,252.846101 C125.240043,252.846101 125.394107,252.804971 125.532142,252.725393 L248.556508,180.840537 C248.831687,180.679593 249,180.385423 249,180.067111 L249,72.5751276 C249,72.2541333 248.829906,71.9590688 248.553837,71.7990187 M247.215347,179.035279 L140.586808,117.330147 L124.919447,108.151854 L124.922118,72.8210147 L124.029792,73.4281322 L124.02712,108.15096 L93.4591565,125.867346 L93.4591565,126.992167 L124.482189,109.042413 L140.170924,118.123245 L246.130663,180.18603 L135.872262,244.610226 L125.037889,250.891522 L2.17649247,179.808706 L26.7323858,165.600011 L26.1321583,164.889174 L1.72943878,179.033491 L1.72943878,73.0919375 L124.036026,2.18794768 L124.034245,23.0373813 L124.92479,23.0373813 L124.928352,2.18794768 L247.215347,73.0910434 L247.215347,179.035279" id="Fill-7" fill="#0E2249" mask="url(#mask-dnj1owkchb-2)"></path>
                            </g>
                            <path d="M25.2448812,125.969984 L81.9272649,93.3574847 C82.0797551,93.2707755 82.2663313,93.2707755 82.4188214,93.3574847 L93.7560158,99.8794483 C93.9076089,99.9670514 94,100.128849 94,100.303161 L93.999103,139.439412 C93.999103,139.612831 93.9058149,139.775522 93.7533248,139.861338 L37.0718381,172.476519 C36.99649,172.519427 36.9121719,172.540881 36.8269568,172.540881 C36.7417417,172.540881 36.6583207,172.519427 36.5811786,172.476519 L25.2448812,165.952768 C25.0932881,165.865164 25,165.705155 25,165.529055 L25,126.393697 C25,126.219385 25.0932881,126.056694 25.2448812,125.969984 L25.2448812,125.969984 Z M36.989314,171.393995 L93.0509731,139.145316 L93.0509731,136.20346 L36.989314,168.452139 L36.989314,171.393995 Z M93.0509731,132.425799 L36.989314,164.672689 L36.989314,168.074909 L93.0509731,135.828018 L93.0509731,132.425799 Z M36.989314,162.268967 L36.989314,164.297247 L93.0509731,132.048569 L93.0509731,128.863569 L36.989314,161.111354 L36.989314,162.268967 Z M36.989314,134.614983 L36.989314,160.734124 L93.018681,128.498854 L93.020475,100.773358 L36.989314,133.010415 L36.989314,134.614983 Z M92.8554269,100.491776 L82.1730432,94.3461486 L26.1445731,126.581418 L36.8269568,132.728834 L92.8554269,100.491776 Z M25.980422,165.246579 L36.6637027,171.393995 L36.6619087,133.010415 L25.980422,126.863894 L25.980422,165.246579 L25.980422,165.246579 Z" id="Fill-9" fill="#0E2249"></path>
                            <path d="M27,126.872823 L83.1711827,94.2955975 M28.9576513,127.956166 L85.1279401,95.3780459 M30.9144086,129.026985 L87.0855914,96.4497594 M32.871166,130.34292 L89.0423487,97.7656946 M34.8288173,131.41195 L91,98.8347243" id="Stroke-10" stroke="#0E2249" stroke-width="0.405" stroke-linecap="round"></path>
                            <path d="M223.755119,107.913381 L167.072735,75.300881 C166.920245,75.2141718 166.734566,75.2141718 166.581179,75.300881 L155.243984,81.8228445 C155.093288,81.9095538 155,82.0722453 155,82.2456637 L155.001794,121.381915 C155.001794,121.556227 155.094185,121.718025 155.246675,121.805628 L211.928162,154.419021 C212.004407,154.462823 212.088725,154.484277 212.17394,154.484277 C212.258258,154.484277 212.342576,154.462823 212.419718,154.419021 L223.755119,147.89527 C223.906712,147.808561 224,147.647657 224,147.472451 L224,108.3362 C224,108.161887 223.906712,108.00009 223.755119,107.913381 L223.755119,107.913381 Z M212.011583,153.3213 L155.981319,121.085137 L155.980422,82.716754 L212.011583,114.953812 L212.011583,153.3213 Z M156.143676,82.4342786 L166.827854,76.2886509 L222.855427,108.524815 L212.17394,114.671336 L156.143676,82.4342786 Z M223.019578,147.189975 L212.337194,153.336497 L212.338091,114.953812 L223.019578,108.80729 L223.019578,147.189975 L223.019578,147.189975 Z" id="Fill-11" fill="#0E2249"></path>
                            <path d="M221,108.816219 L164.828927,76.2389937 M219.042321,109.900457 L162.871248,77.3223367 M217.086431,110.971276 L160.914463,78.3940502 M215.127858,112.287211 L158.956785,79.7090908 M213.171967,113.355346 L157,80.7781205" id="Stroke-12" stroke="#0E2249" stroke-width="0.405" stroke-linecap="round"></path>
                        </g>
                    </g>
                </g>
            </g>
        </g>
    </g>
</svg>