<?xml version="1.0" encoding="utf-8"?>
<!-- Generator: Adobe Illustrator 26.0.3, SVG Export Plug-In . SVG Version: 6.00 Build 0)  -->
<svg version="1.1" id="Ebene_1" xmlns="http://www.w3.org/2000/svg" xmlns:xlink="http://www.w3.org/1999/xlink" x="0px" y="0px"
	 viewBox="0 0 24 24" style="enable-background:new 0 0 24 24;" xml:space="preserve">
<style type="text/css">
	.st0{fill:#0E2249;}
	.st1{fill:#FFFFFF;}
</style>
<circle class="st0" cx="12" cy="12" r="12"/>
<g id="Icon_x2F_Globe" transform="translate(4.000000, 4.000000)">
	<path id="Path" class="st1" d="M3.7,0.6C1.1,2.1-0.5,5-0.5,8c0,4.7,3.8,8.5,8.5,8.5s8.5-3.8,8.5-8.5c0-3-1.6-5.9-4.3-7.4
		S6.4-0.9,3.7,0.6z M11.7,1.7C13.9,3,15.3,5.4,15.3,8c0,4-3.3,7.3-7.3,7.3S0.7,12,0.7,8c0-2.6,1.4-5,3.7-6.3S9.4,0.4,11.7,1.7z"/>
	<path id="Path_00000173875601796370765150000015405692885364557714_" class="st1" d="M15.9,7.4c0.3,0,0.6,0.3,0.6,0.6
		c0,0.3-0.2,0.6-0.5,0.6l-0.1,0H0.1c-0.3,0-0.6-0.3-0.6-0.6c0-0.3,0.2-0.6,0.5-0.6l0.1,0H15.9z"/>
	<path id="Path_00000044160550206653033570000006788318851344526757_" class="st1" d="M7.5-0.3C5.6,2,4.5,4.9,4.3,8V8
		c0.2,3,1.3,5.9,3.2,8.3c0.2,0.3,0.7,0.3,0.9,0c1.9-2.4,3-5.3,3.2-8.3V8c-0.2-3-1.3-5.9-3.2-8.3C8.2-0.6,7.8-0.6,7.5-0.3z M8,1.1
		L8,1.1c1.4,2,2.2,4.3,2.4,6.7l0,0.2l0,0.2c-0.2,2.3-0.9,4.5-2.3,6.4L8,14.9l0,0c-1.4-2-2.2-4.3-2.4-6.7l0-0.2l0,0
		c0.1-2.4,0.9-4.7,2.3-6.7L8,1.1z"/>
</g>
</svg>
