<?xml version="1.0" encoding="utf-8"?>
<!-- Generator: Adobe Illustrator 25.2.3, SVG Export Plug-In . SVG Version: 6.00 Build 0)  -->
<svg version="1.1" id="Ebene_1" xmlns="http://www.w3.org/2000/svg" xmlns:xlink="http://www.w3.org/1999/xlink" x="0px" y="0px"
	 width="567" height="166.2" viewBox="0 0 567 166.2" style="enable-background:new 0 0 567 166.2;" xml:space="preserve">
<style type="text/css">
	.st0{fill-rule:evenodd;clip-rule:evenodd;fill:#FFFFFF;}
</style>
<g>
	<polygon class="st0" points="198.3,64.2 186.6,107.9 174.9,64.2 147.3,64.2 147.3,151.7 167.7,151.7 167.7,107.9 180.8,151.7 
		192.4,151.7 205.5,107.9 205.5,151.7 225.9,151.7 225.9,64.2 	"/>
	<polygon class="st0" points="546.9,64.2 546.9,107.9 526.8,64.2 506.6,64.2 506.6,107.9 486.5,64.2 466.4,64.2 466.4,151.7 
		486.5,151.7 486.5,113.8 506.6,151.7 526.8,151.7 526.8,113.8 546.9,151.7 567,151.7 567,64.2 	"/>
	<path class="st0" d="M98.4,0L62,90.4c-3.7,8.7-5.8,17.3-5.8,23.3c0,8.7,0,52.5,0,52.5L98.4,64.1l42.2,102.1v-52.5
		c0-5.8-2.4-14.6-5.8-23.3L98.4,0z"/>
	<path class="st0" d="M98.4,107.9c-12.1,0-21.8,9.8-21.8,21.8c0,12.2,9.8,21.9,21.8,21.9c12.1,0,21.8-9.8,21.8-21.9
		C120.3,117.7,110.5,107.9,98.4,107.9z"/>
	<path class="st0" d="M417,0l-36.4,90.4c-3.7,8.7-5.8,17.3-5.8,23.3c0,8.7,0,52.5,0,52.5L417,64.1l42.2,102.1v-52.5
		c0-5.8-2.4-14.6-5.8-23.3L417,0z"/>
	<path class="st0" d="M417,107.9c-12.1,0-21.9,9.8-21.9,21.8c0,12.2,9.8,21.9,21.9,21.9c12.1,0,21.8-9.8,21.8-21.9
		C438.8,117.7,429,107.9,417,107.9z"/>
	<path class="st0" d="M263.3,64.2c0,0-4.5,0-30.4,0v87.5H253c0,0,0-11.3,0-12.3h10.3c8.2,0,19.2,0,19.1-15.5c0-10.7,0-43.1,0-44.4
		C282.5,64.2,271.6,64.2,263.3,64.2z M263.6,123.9H253V79.5h10.6V123.9z"/>
	<polygon class="st0" points="328.8,107.9 317.1,64.2 289.5,64.2 289.5,151.7 309.9,151.7 309.9,107.9 323,151.7 334.6,151.7 
		347.7,107.9 347.7,151.7 368.1,151.7 368.1,64.2 340.4,64.2 	"/>
	<path class="st0" d="M35,64.2l-14.6,35v-35H0v87.5h20.4v-37.9h8.7v37.9h20.5V108c0-6.9-3.8-8.7-8.7-8.7l14.6-35L35,64.2L35,64.2z"
		/>
</g>
</svg>
