<?xml version="1.0" encoding="UTF-8"?>
<svg width="259px" height="96px" viewBox="0 0 259 96" version="1.1" xmlns="http://www.w3.org/2000/svg" xmlns:xlink="http://www.w3.org/1999/xlink">
    <title>Logo/1c/Styleguide/White</title>
    <g id="Logo/1c/Styleguide/White" stroke="none" stroke-width="1" fill="none" fill-rule="evenodd">
        <g id="KampmannLogo_RGB" fill="#FFFFFF">
            <polyline id="Fill-1" points="90.6840727 29 85.4997775 48.9983997 80.3150373 29 68 29 68 69 77.0740741 69 77.0740741 48.9983997 82.9089649 69 88.0928151 69 93.9254809 48.9983997 93.9254809 69 103 69 102.998665 29 90.6840727 29"></polyline>
            <polyline id="Fill-2" points="248.792624 29.5512575 248.792624 49.4564311 239.617622 29.5512575 230.440796 29.5512575 230.440796 49.4564311 221.264427 29.5512575 212.089425 29.5512575 212.089425 69.3647904 221.264427 69.3647904 221.264427 52.1114251 230.440796 69.3647904 239.617622 69.3647904 239.617622 52.1114251 248.792624 69.3647904 257.967626 69.3647904 257.967626 29.5512575 248.792624 29.5512575"></polyline>
            <path d="M44.3043464,0.35405988 L27.7020705,41.4946347 C26.0241057,45.4466347 25.0460528,49.374515 25.0460528,52.1114251 C25.0460528,56.0920958 25.0460528,76 25.0460528,76 L44.3043464,29.5512575 L63.5640078,76 L63.5640078,52.1114251 C63.5640078,49.4564311 62.4610196,45.4766707 60.9075342,41.4946347 L44.3043464,0.35405988" id="Fill-4"></path>
            <path d="M44.3043464,49.4564311 C38.8085558,49.4564311 34.3423425,53.9267784 34.3423425,59.3955928 C34.3423425,64.9253892 38.8085558,69.3647904 44.3043464,69.3647904 C49.8010489,69.3647904 54.2668063,64.9253892 54.2668063,59.3955928 C54.2668063,53.9267784 49.8010489,49.4564311 44.3043464,49.4564311" id="Fill-5"></path>
            <path d="M189.5591,0.35405988 L172.956368,41.4946347 C171.278859,45.4466347 170.298982,49.374515 170.298982,52.1114251 C170.298982,56.0920958 170.298982,76 170.298982,76 L189.5591,29.5512575 L208.816025,76 L208.816025,52.1114251 C208.816025,49.4564311 207.713493,45.4766707 206.161832,41.4946347 L189.5591,0.35405988" id="Fill-6"></path>
            <path d="M190.001373,49 C184.482538,49 180,53.4909249 180,58.9849129 C180,64.5401637 184.482538,69 190.001373,69 C195.51792,69 200,64.5401637 200,58.9849129 C200,53.4909249 195.51792,49 190.001373,49" id="Fill-8"></path>
            <path d="M115.313238,56.2988512 L120.251097,56.2988512 L120.251097,35.9890838 L115.313238,35.9890838 L115.313238,56.2988512 Z M120.098284,29 C120.098284,29 118.029502,29 106,29 L106,69 L115.313238,69 C115.313238,69 115.313238,63.8315711 115.313238,63.3738927 L120.098284,63.3738927 C123.922792,63.3738927 129,63.3738927 128.992563,56.2663885 C128.986525,51.3517174 129,36.5633537 129,35.9451906 C129.004175,29 123.947873,29 120.098284,29 L120.098284,29 Z" id="Fill-9"></path>
            <polyline id="Fill-10" points="149.652488 48.5801573 144.347967 28.4307303 131.749789 28.4307303 131.749789 68.732809 141.033951 68.732809 141.033951 48.5801573 147 68.732809 152.305431 68.732809 158.272846 48.5801573 158.272846 68.732809 167.557008 68.732809 167.557008 28.4307303 154.959285 28.4307303 149.652488 48.5801573"></polyline>
            <path d="M15.9131057,28.4293483 L9.28279675,44.5515618 L9.28279675,28.4293483 L0,28.4293483 L0,68.7309663 L9.29691057,68.7309663 L9.28279675,51.269573 L13.2610732,51.269573 L13.2610732,68.7309663 L22.5438699,68.7309663 L22.5438699,48.5801573 C22.5438699,45.3955169 20.8165203,44.5515618 18.5655935,44.5515618 L25.1963577,28.4293483 L15.9131057,28.4293483" id="Fill-12"></path>
        </g>
        <text id="DIGITAL-STYLEGUIDE" font-family="CircularStd-Black, Circular Std" font-size="14" font-weight="800" letter-spacing="6.6" fill="#FFFFFF">
            <tspan x="0" y="92">DIGITAL STYLEGUIDE</tspan>
        </text>
    </g>
</svg>