<?xml version="1.0" encoding="utf-8"?>
<svg width="200px" height="200px" viewBox="0 0 200 200" version="1.1" xmlns="http://www.w3.org/2000/svg" xmlns:xlink="http://www.w3.org/1999/xlink">
<g>
	<polygon fill="#FFFFFF" points="51.523,173.364 48.553,184.519 45.583,173.364 38.526,173.364 38.526,195.677 43.725,195.677 
		43.725,184.519 47.068,195.677 50.038,195.677 53.38,184.519 53.38,195.677 58.579,195.677 58.577,173.364 	"/>
	<path fill="#FFFFFF" d="M26.071,157l-9.282,23.057c-0.939,2.214-1.485,4.417-1.485,5.95v13.39l10.767-26.032l10.769,26.032v-13.39
		c0-1.487-0.617-3.719-1.485-5.95L26.071,157z"/>
	<path fill="#FFFFFF" d="M26.071,184.52c-3.073,0-5.57,2.505-5.57,5.57c0,3.101,2.497,5.588,5.57,5.588
		c3.074,0,5.569-2.487,5.569-5.588C31.64,187.025,29.145,184.52,26.071,184.52"/>
	<path fill="#FFFFFF" d="M107.285,157l-9.284,23.057c-0.938,2.214-1.485,4.417-1.485,5.95v13.39l10.769-26.032l10.767,26.032v-13.39
		c0-1.487-0.617-3.719-1.483-5.95L107.285,157z"/>
	<path fill="#FFFFFF" d="M107.285,184.52c-3.074,0-5.571,2.505-5.571,5.57c0,3.101,2.497,5.588,5.571,5.588
		c3.072,0,5.569-2.487,5.569-5.588C112.855,187.025,110.358,184.52,107.285,184.52"/>
	<path fill="#FFFFFF" d="M68.187,188.591h-2.71v-11.329h2.71V188.591z M68.104,173.364h-7.739v22.313h5.113v-3.139h2.626
		c2.098,0,4.886,0,4.882-3.965c-0.003-2.74,0.005-10.99,0.005-11.336C72.992,173.364,70.216,173.364,68.104,173.364"/>
	<polygon fill="#FFFFFF" points="140.419,173.364 140.419,184.519 135.289,173.364 130.158,173.364 130.158,184.519 
		125.028,173.364 119.897,173.364 119.897,195.677 125.028,195.677 125.028,186.008 130.158,195.677 135.289,195.677 
		135.289,186.008 140.419,195.677 145.548,195.677 145.548,173.364 	"/>
	<path fill="#FFFFFF" d="M9.912,173.362l-3.713,8.926v-8.926H1v22.314h5.207l-0.008-9.669h2.228v9.669h5.197v-11.157
		c0-1.763-0.967-2.231-2.228-2.231l3.712-8.926H9.912z"/>
	<polygon fill="#FFFFFF" points="84.8,184.52 81.83,173.364 74.776,173.364 74.776,195.677 79.973,195.677 79.973,184.52 
		83.315,195.677 86.285,195.677 89.627,184.52 89.627,195.677 94.826,195.677 94.826,173.364 87.772,173.364 	"/>
</g>
<g>
	<path fill="#FFFFFF" d="M1,28.597V2.013h9.523c7.574,0,13.124,4.913,13.124,13.312S18.06,28.597,10.486,28.597H1z M10.299,23.798
		c4.349,0,7.987-2.7,7.987-8.473c0-5.775-3.6-8.512-7.95-8.512H6.174v16.986H10.299z"/>
	<path fill="#FFFFFF" d="M30.249,1c1.725,0,3.075,1.387,3.075,3.112c0,1.65-1.35,3.038-3.075,3.038
		c-1.688,0-3.075-1.387-3.075-3.038C27.174,2.387,28.561,1,30.249,1z M27.775,28.597V10.148h4.987v18.449H27.775z"/>
	<path fill="#FFFFFF" d="M41.274,28.41c0.338,2.025,1.951,3.487,4.312,3.487c3.151,0,4.913-1.575,4.913-5.137v-1.35
		c-0.749,1.2-2.474,2.363-5.137,2.363c-4.913,0-8.586-3.787-8.586-8.961c0-4.875,3.524-9,8.586-9c2.925,0,4.612,1.276,5.25,2.513
		v-2.175h4.799v16.461c0,5.063-2.737,9.675-9.675,9.675c-5.061,0-8.436-3.151-8.961-6.674L41.274,28.41z M50.573,18.811
		c0-2.85-1.949-4.649-4.349-4.649c-2.474,0-4.425,1.799-4.425,4.649c0,2.887,1.838,4.686,4.425,4.686
		C48.774,23.497,50.573,21.661,50.573,18.811z"/>
	<path fill="#FFFFFF" d="M62.949,1c1.725,0,3.075,1.387,3.075,3.112c0,1.65-1.35,3.038-3.075,3.038
		c-1.688,0-3.075-1.387-3.075-3.038C59.874,2.387,61.262,1,62.949,1z M60.475,28.597V10.148h4.987v18.449H60.475z"/>
	<path fill="#FFFFFF" d="M76.936,10.148h3.713v4.425h-3.713v7.724c0,1.613,0.751,2.138,2.175,2.138c0.601,0,1.276-0.076,1.537-0.15
		v4.124c-0.451,0.187-1.35,0.451-2.812,0.451c-3.6,0-5.849-2.138-5.849-5.701v-8.586H68.65v-4.425h0.938
		c1.949,0,2.849-1.274,2.849-2.925V4.637h4.499V10.148z"/>
	<path fill="#FFFFFF" d="M89.385,17.986l4.538-0.675c1.05-0.15,1.387-0.675,1.387-1.311c0-1.313-1.013-2.4-3.112-2.4
		c-2.175,0-3.375,1.387-3.525,2.999l-4.425-0.937c0.3-2.887,2.962-6.075,7.911-6.075c5.849,0,8.024,3.299,8.024,7.012v9.074
		c0,0.975,0.113,2.287,0.224,2.925h-4.573c-0.113-0.488-0.187-1.5-0.187-2.212c-0.938,1.463-2.7,2.737-5.437,2.737
		c-3.937,0-6.337-2.661-6.337-5.549C83.873,20.272,86.31,18.436,89.385,17.986z M95.31,21.135v-0.824l-4.163,0.636
		c-1.274,0.187-2.287,0.901-2.287,2.325c0,1.087,0.788,2.137,2.4,2.137C93.359,25.409,95.31,24.397,95.31,21.135z"/>
	<path fill="#FFFFFF" d="M105.211,28.597V1.451h4.987v27.146H105.211z"/>
</g>
<g>
	<path fill="#FFFFFF" d="M16.148,47.275c-0.263-1.461-1.463-3.75-4.837-3.75c-2.513,0-4.163,1.613-4.163,3.375
		c0,1.463,0.938,2.624,2.887,2.999l3.713,0.714c4.837,0.937,7.424,4.086,7.424,7.835c0,4.087-3.412,8.212-9.599,8.212
		C4.524,66.66,1.412,62.124,1,58.337l4.799-1.276c0.224,2.626,2.062,4.987,5.81,4.987c2.776,0,4.313-1.387,4.313-3.262
		c0-1.537-1.163-2.737-3.225-3.149l-3.713-0.749c-4.237-0.862-6.975-3.6-6.975-7.613c0-4.724,4.237-8.323,9.261-8.323
		c6.45,0,8.926,3.898,9.525,6.899L16.148,47.275z"/>
	<path fill="#FFFFFF" d="M31.522,47.65h3.713v4.425h-3.713v7.724c0,1.613,0.751,2.138,2.175,2.138c0.601,0,1.276-0.076,1.537-0.15
		v4.124c-0.451,0.187-1.35,0.451-2.812,0.451c-3.6,0-5.849-2.138-5.849-5.701v-8.586h-3.338V47.65h0.938
		c1.949,0,2.849-1.274,2.849-2.925v-2.587h4.499V47.65z"/>
	<path fill="#FFFFFF" d="M40.972,73.372l4.349-9.599L37.485,47.65h5.586l4.913,10.799L52.52,47.65h5.324L46.259,73.372H40.972z"/>
	<path fill="#FFFFFF" d="M60.885,66.098V38.952h4.987v27.146H60.885z"/>
	<path fill="#FFFFFF" d="M87.733,60.811c-0.937,3.188-3.863,5.849-8.399,5.849c-5.063,0-9.525-3.637-9.525-9.861
		c0-5.888,4.351-9.712,9.074-9.712c5.701,0,9.113,3.637,9.113,9.562c0,0.712-0.076,1.461-0.076,1.537H74.722
		c0.113,2.437,2.175,4.199,4.649,4.199c2.325,0,3.6-1.161,4.2-2.812L87.733,60.811z M83.084,54.775
		c-0.076-1.838-1.276-3.637-4.124-3.637c-2.587,0-4.013,1.949-4.124,3.637H83.084z"/>
</g>
<g>
	<path fill="#FFFFFF" d="M22.447,103.598l-0.338-3.038c-1.2,1.801-3.826,3.6-7.837,3.6C7.111,104.16,1,98.911,1,90.325
		c0-8.588,6.411-13.874,13.61-13.874c6.975,0,10.836,4.086,12.149,8.173l-4.95,1.763c-0.675-2.363-2.887-5.1-7.199-5.1
		c-4.011,0-8.362,2.737-8.362,9.037c0,5.999,3.937,9.111,8.399,9.111c4.913,0,6.825-3.301,7.125-5.174h-8.399v-4.501h13.273v13.836
		H22.447z"/>
	<path fill="#FFFFFF" d="M43.336,101.61c-1.013,1.725-3.149,2.476-5.1,2.476c-4.462,0-7.012-3.262-7.012-7.275V85.149h4.988v10.649
		c0,2.064,1.05,3.713,3.374,3.713c2.212,0,3.488-1.5,3.488-3.637V85.149h4.987v15.112c0,1.424,0.111,2.698,0.187,3.336h-4.762
		C43.412,103.223,43.336,102.361,43.336,101.61z"/>
	<path fill="#FFFFFF" d="M55.863,76.001c1.725,0,3.075,1.387,3.075,3.112c0,1.65-1.35,3.038-3.075,3.038
		c-1.688,0-3.075-1.387-3.075-3.038C52.788,77.388,54.175,76.001,55.863,76.001z M53.389,103.598V85.149h4.987v18.449H53.389z"/>
	<path fill="#FFFFFF" d="M81.286,100.261c0,1.237,0.076,2.587,0.15,3.336h-4.762c-0.074-0.375-0.187-1.274-0.187-2.137
		c-0.825,1.461-2.7,2.587-5.174,2.587c-5.25,0-9-4.124-9-9.712c0-5.4,3.638-9.636,8.85-9.636c3.188,0,4.686,1.311,5.211,2.287
		V76.451h4.913V100.261z M71.912,99.586c2.55,0,4.538-1.951,4.538-5.287c0-3.301-1.988-5.137-4.538-5.137
		c-2.548,0-4.573,1.875-4.573,5.174C67.338,97.636,69.288,99.586,71.912,99.586z"/>
	<path fill="#FFFFFF" d="M103.225,98.311c-0.937,3.188-3.863,5.849-8.399,5.849c-5.063,0-9.525-3.637-9.525-9.861
		c0-5.888,4.351-9.712,9.074-9.712c5.701,0,9.113,3.637,9.113,9.562c0,0.712-0.076,1.461-0.076,1.537H90.213
		c0.113,2.437,2.175,4.199,4.649,4.199c2.325,0,3.6-1.161,4.2-2.812L103.225,98.311z M98.575,92.274
		c-0.076-1.838-1.276-3.637-4.124-3.637c-2.587,0-4.013,1.949-4.124,3.637H98.575z"/>
</g>
</svg>
