<svg width="24" height="24" viewBox="0 0 24 24" xmlns="http://www.w3.org/2000/svg" xmlns:xlink="http://www.w3.org/1999/xlink">
  <defs>
    <circle id="a" cx="12" cy="12" r="12"/>
  </defs>
  <g fill="none" fill-rule="evenodd">
    <mask id="b" fill="#fff">
      <use xlink:href="#a"/>
    </mask>
    <use fill="#D8D8D8" xlink:href="#a"/>
    <g mask="url(#b)" fill-rule="nonzero">
      <path d="M-6 0h45.6v1.847H-6V0Zm0 3.694h45.6V5.54H-6V3.694Zm0 3.689h45.6v1.851H-6V7.383Zm0 3.694h45.6v1.846H-6v-1.846Zm0 3.693h45.6v1.847H-6V14.77Zm0 3.69h45.6v1.846H-6V18.46Zm0 3.693h45.6V24H-6v-1.847Z" fill="#BD3D44"/>
      <path d="M-6 1.847h45.6v1.847H-6V1.847Zm0 3.694h45.6v1.842H-6V5.54Zm0 3.689h45.6v1.847H-6V9.23Zm0 3.693h45.6v1.847H-6v-1.847Zm0 3.694h45.6v1.847H-6v-1.847Zm0 3.69h45.6v1.846H-6v-1.847Z" fill="#FFF"/>
    </g>
    <path fill="#192F5D" fill-rule="nonzero" mask="url(#b)" d="M-6 0h18.239v12.923H-6z"/>
    <path d="m-4.481.553.168.511h.535l-.431.314.164.516-.436-.319-.431.314.164-.51-.436-.315h.543l.16-.51Zm3.042 0 .164.511h.54l-.437.314.164.516-.431-.319-.436.314.164-.51-.431-.315h.534l.169-.51Zm3.037 0 .17.511h.529l-.431.314.164.516-.436-.319-.431.314.164-.51-.436-.315h.539l.168-.51Zm3.043 0 .164.511h.539l-.436.314.169.516-.436-.319-.436.314.168-.51-.436-.315h.535l.169-.51Zm3.037 0 .169.511h.534l-.431.314.164.516-.436-.319-.431.314.164-.51-.431-.315h.534l.164-.51Zm3.042 0 .164.511h.54l-.436.314.168.516-.436-.319-.436.314.17-.51-.437-.315h.54l.163-.51ZM-2.958 1.847l.164.51h.54l-.437.315.16.51-.422-.313-.436.314.155-.511-.422-.314h.534l.164-.511Zm3.038 0 .168.51h.535l-.436.315.169.51L.08 2.87l-.436.314.168-.511-.435-.314h.539l.164-.511Zm3.042 0 .164.51h.539l-.436.315.164.51-.431-.313-.436.314.164-.511-.431-.314h.534l.169-.511Zm3.037 0 .17.51h.534l-.436.315.168.51-.436-.313-.43.314.163-.511-.436-.314H6l.16-.511Zm3.043 0 .164.51h.539l-.436.315.164.51-.431-.313-.436.314.164-.511-.432-.314h.535l.169-.511ZM-4.481 3.136l.168.52h.535l-.431.314.164.511-.436-.319-.431.32.164-.516-.436-.314h.543l.16-.516Zm3.042 0 .164.516h.54l-.437.314.164.51-.431-.318-.436.319.164-.516-.431-.314h.534l.169-.511Zm3.037 0 .17.516h.529l-.431.314.164.51-.436-.318-.431.319.164-.516-.436-.314h.539l.168-.511Zm3.043 0 .164.516h.539l-.436.314.169.51-.436-.318-.436.319.168-.516-.436-.314h.535l.169-.511Zm3.037 0 .169.516h.534l-.431.314.164.51-.436-.318-.431.319.164-.516-.431-.314h.534l.164-.511Zm3.042 0 .164.516h.54l-.436.314.168.51-.436-.318-.436.319.17-.516-.437-.314h.54l.163-.511ZM-2.958 4.43l.164.51h.54l-.437.315.164.515-.43-.318-.437.314.164-.511-.43-.314h.533l.17-.511Zm3.038 0 .168.51h.535l-.436.315.169.515-.436-.318-.436.314.168-.511-.435-.314h.539L.08 4.43Zm3.042 0 .164.51h.539l-.436.315.164.515-.431-.318-.436.314.164-.511-.431-.314h.534l.169-.511Zm3.037 0 .17.51h.534l-.432.315.164.515-.436-.318-.43.314.163-.511-.436-.314H6l.16-.511Zm3.043 0 .164.51h.539l-.436.315.164.515-.431-.318-.436.314.164-.511-.432-.314h.535l.169-.511ZM-4.481 5.723l.168.511h.535l-.431.314.164.516-.436-.319-.431.314.164-.51-.436-.315h.543l.16-.51Zm3.042 0 .164.511h.54l-.437.314.164.511-.431-.314-.436.314.164-.51-.431-.315h.534l.169-.51Zm3.037 0 .17.511h.529l-.431.314.164.516-.436-.319-.431.314.164-.51-.436-.315h.539l.168-.51Zm3.043 0 .164.511h.539l-.436.314.169.516-.436-.319-.436.314.168-.51-.436-.315h.535l.169-.51Zm3.037 0 .169.511h.534l-.431.314.164.516-.436-.319-.431.314.164-.51-.431-.315h.534l.164-.51Zm3.042 0 .164.511h.54l-.436.314.168.516-.436-.319-.436.314.17-.51-.437-.315h.54l.163-.51ZM-2.958 7.017l.164.511h.54l-.437.314.164.511-.43-.319-.437.32.164-.516-.43-.315h.533l.17-.506Zm3.038 0 .168.511h.535l-.436.314.169.511-.436-.319-.436.32.168-.516-.435-.315h.539l.164-.506Zm3.042 0 .164.511h.539l-.436.314.164.511-.431-.319-.436.32.164-.516-.431-.315h.534l.169-.506Zm3.037 0 .17.511h.534l-.432.314.164.511-.436-.319-.43.32.163-.516-.436-.315H6l.16-.506Zm3.043 0 .164.511h.539l-.436.314.164.511-.431-.319-.436.32.164-.516-.432-.315h.535l.169-.506Zm-13.683 1.29.168.515h.535l-.431.314.164.506-.436-.314-.431.314.164-.51-.436-.315h.543l.16-.51Zm3.042 0 .164.515h.54l-.437.314.169.506-.436-.314-.436.314.169-.51-.436-.315h.534l.169-.51Zm3.037 0 .17.515h.529l-.431.314.164.506-.436-.314-.431.314.164-.51-.436-.315h.539l.168-.51Zm3.043 0 .164.515h.539l-.436.314.169.506-.436-.314-.436.314.168-.51-.436-.315h.535l.169-.51Zm3.037 0 .169.515h.534l-.431.314.164.506-.436-.314-.431.314.164-.51-.431-.315h.534l.164-.51Zm3.042 0 .164.515h.54l-.436.314.168.506-.436-.314-.436.314.17-.51-.437-.315h.54l.163-.51ZM-2.958 9.6l.164.51h.54l-.437.315.164.516-.43-.32-.437.315.164-.511-.43-.314h.533l.17-.511Zm3.038 0 .168.51h.535l-.436.315.169.516-.436-.32-.436.315.168-.511-.435-.314h.539L.08 9.6Zm3.042 0 .164.51h.539l-.436.315.164.516-.431-.32-.436.315.164-.511-.431-.314h.534l.169-.511Zm3.037 0 .17.51h.534l-.432.315.164.516-.436-.32-.43.315.163-.511-.436-.314H6l.16-.511Zm3.043 0 .164.51h.539l-.436.315.164.516-.431-.32-.436.315.164-.511-.432-.314h.535l.169-.511Zm-13.683 1.294.168.51h.535l-.431.315.164.51-.436-.313-.431.314.164-.516-.436-.314h.543l.16-.506Zm3.042 0 .164.51h.54l-.437.315.169.51-.436-.313-.436.314.169-.516-.436-.314h.534l.169-.506Zm3.037 0 .17.51h.529l-.422.315.164.51-.436-.313-.431.314.164-.516L.9 11.4h.54l.158-.506Zm3.043 0 .164.51h.539l-.436.315.169.51-.436-.313-.436.314.168-.516-.436-.314h.535l.169-.506Zm3.037 0 .169.51h.534l-.431.315.164.51-.436-.313-.431.314.164-.516-.431-.314h.534l.164-.506Zm3.042 0 .164.51h.54l-.436.315.168.51-.436-.313-.436.314.17-.516-.437-.314h.54l.163-.506Z" fill="#FFF" fill-rule="nonzero" mask="url(#b)"/>
  </g>
</svg>
