
<svg width="24px" height="28px" viewBox="0 0 24 28" version="1.1" xmlns="http://www.w3.org/2000/svg" xmlns:xlink="http://www.w3.org/1999/xlink">
    <g id="Symbols" stroke="none" stroke-width="1" fill="none" fill-rule="evenodd">
        <g id="Footer" transform="translate(-1226.000000, -32.000000)" fill="#FFFFFF" fill-rule="nonzero">
            <g id="Social-Media" transform="translate(1104.000000, 32.000000)">
                <g id="Icon/Xing" transform="translate(121.937500, 0.000000)">
                    <path d="M9.98945293,10.9305435 C9.87891934,11.1331884 8.44198273,13.6570386 5.68478383,18.5143757 C5.38388685,19.0240583 5.02158231,19.28197 4.59787023,19.28197 L0.600238874,19.28197 C0.127400756,19.28197 -0.142792454,18.8214134 0.0782747181,18.3977013 L4.31539552,10.9489658 C4.32767702,10.9489658 4.32767702,10.942825 4.31539552,10.9305435 L1.61960417,6.28813289 C1.35555171,5.80915402 1.63802643,5.42228647 2.14156832,5.42228647 L6.13919968,5.42228647 C6.58747478,5.42228647 6.95592007,5.67405742 7.24453554,6.17145855 L9.98945293,10.9305435 Z M23.4929727,0.865846424 L14.6502858,16.401956 L14.6502858,16.4203783 L20.2752172,26.6508757 C20.5147066,27.0868693 20.2874987,27.5167222 19.753253,27.5167222 L15.7494809,27.5167222 C15.2827835,27.5167222 14.9143383,27.271092 14.6441451,26.7675501 L8.97008764,16.4203783 C9.17273254,16.0642145 12.1325763,10.8445729 17.8619006,0.749172083 C18.1443753,0.251770946 18.5005391,4.45024135e-14 18.9365326,4.45024135e-14 L22.9710085,4.45024135e-14 C23.4622689,4.45024135e-14 23.7263214,0.41143057 23.4929727,0.865846424 L23.4929727,0.865846424 Z" id="Shape"></path>
                </g>
            </g>
        </g>
    </g>
</svg>