
<svg width="27px" height="26px" viewBox="0 0 27 26" version="1.1" xmlns="http://www.w3.org/2000/svg" xmlns:xlink="http://www.w3.org/1999/xlink">
    <g id="Symbols" stroke="none" stroke-width="1" fill="none" fill-rule="evenodd">
        <g id="Footer" transform="translate(-1183.000000, -33.000000)" fill="#FFFFFF" fill-rule="nonzero">
            <g id="Social-Media" transform="translate(1104.000000, 32.000000)">
                <g id="icon/Linkedin" transform="translate(79.937500, 1.000000)">
                    <path d="M5.81982143,26 L0.429464286,26 L0.429464286,8.64113035 L5.81982143,8.64113035 L5.81982143,26 Z M3.12174107,6.27322035 C1.39808036,6.27322035 0,4.84550991 0,3.12181071 C0,1.39768226 1.3976511,0 3.12174107,0 C4.84583104,0 6.24348214,1.39768226 6.24348214,3.12181071 C6.24348214,4.84550991 4.84482143,6.27322035 3.12174107,6.27322035 Z M25.9941964,26 L20.6154464,26 L20.6154464,17.5498114 C20.6154464,15.5359271 20.5748214,12.9532802 17.8129018,12.9532802 C15.0103571,12.9532802 14.5808929,15.1412755 14.5808929,17.4047188 L14.5808929,26 L9.19633929,26 L9.19633929,8.64113035 L14.3661607,8.64113035 L14.3661607,11.0090404 L14.4416071,11.0090404 C15.16125,9.64517062 16.9191518,8.20585278 19.5417857,8.20585278 C24.9971429,8.20585278 26,11.7983437 26,16.4645193 L26,26 L25.9941964,26 Z" id="Shape"></path>
                </g>
            </g>
        </g>
    </g>
</svg>