<svg width="14.8px" height="17px" version="1.1" id="Ebene_1" xmlns="http://www.w3.org/2000/svg" xmlns:xlink="http://www.w3.org/1999/xlink" x="0px" y="0px"
	 viewBox="0 0 14.8 17" style="enable-background:new 0 0 14.8 17;" xml:space="preserve">
<style type="text/css">
	.st0{fill:#FFFFFF;}
</style>
<g id="Symbols">
	<g id="Icon_x2F_User">
		<g transform="translate(1.000000, 1.000000)">
			<path id="Combined-Shape" class="st0" d="M9.9,9.7c2.1,0,3.8,1.9,4,4.2l0,0.2V16h-1v-1.9c0-1.8-1.3-3.3-2.8-3.4l-0.2,0H3
				c-1.6,0-2.9,1.4-3,3.2l0,0.2V16h-1v-1.9c0-2.3,1.7-4.3,3.8-4.4l0.2,0H9.9z M6.3-1c2.4,0,4.4,2,4.4,4.4s-2,4.4-4.4,4.4
				s-4.4-2-4.4-4.4S3.9-1,6.3-1z M6.3,0C4.4,0,2.9,1.5,2.9,3.4s1.5,3.4,3.4,3.4s3.4-1.5,3.4-3.4S8.2,0,6.3,0z"/>
		</g>
	</g>
</g>
</svg>
