<?xml version="1.0" encoding="UTF-8"?>
<svg width="22px" height="22px" viewBox="0 0 22 22" version="1.1" xmlns="http://www.w3.org/2000/svg" xmlns:xlink="http://www.w3.org/1999/xlink">
    <title>Icon Date</title>
    <g id="Design" stroke="none" stroke-width="1" fill="none" fill-rule="evenodd">
        <g id="Produktfamilien" transform="translate(-754.000000, -6933.000000)" fill="#8A8882" fill-rule="nonzero">
            <g id="Group-6" transform="translate(160.000000, 6851.000000)">
                <g id="Seminarlist/Item-Copy" transform="translate(570.000000, 0.000000)">
                    <g id="Item" transform="translate(24.000000, 24.000000)">
                        <g id="Icons" transform="translate(0.000000, 57.000000)">
                            <g id="Icon-Date" transform="translate(0.000000, 1.000000)">
                                <path d="M19.6428571,3.14285714 C20.9012774,3.14285714 21.9293709,4.12900328 21.9965122,5.37067017 L22,5.5 L22,19.6428571 C22,20.9012774 21.0138539,21.9293709 19.772187,21.9965122 L19.6428571,22 L2.35714286,22 C1.09872261,22 0.0706291261,21.0138539 0.00348780551,19.772187 L0,19.6428571 L0,5.5 C0,4.19818595 1.0553288,3.14285714 2.35714286,3.14285714 C2.79108087,3.14285714 3.14285714,3.49463341 3.14285714,3.92857143 C3.14285714,4.33358025 2.83642093,4.66701705 2.44275508,4.70967525 L2.35714286,4.71428571 C1.95213404,4.71428571 1.61869724,5.02072193 1.57603904,5.41438777 L1.57142857,5.5 L1.57142857,19.6428571 C1.57142857,20.047866 1.87786479,20.3813028 2.27153063,20.423961 L2.35714286,20.4285714 L19.6428571,20.4285714 C20.047866,20.4285714 20.3813028,20.1221352 20.423961,19.7284694 L20.4285714,19.6428571 L20.4285714,5.5 C20.4285714,5.09499118 20.1221352,4.76155438 19.7284694,4.71889618 L19.6428571,4.71428571 L16.5,4.71428571 C16.066062,4.71428571 15.7142857,4.36250945 15.7142857,3.92857143 C15.7142857,3.52356261 16.0207219,3.19012581 16.4143878,3.14746761 L16.5,3.14285714 L19.6428571,3.14285714 Z" id="Path"></path>
                                <path d="M5.5,0 C5.90500882,0 6.23844562,0.306436216 6.28110382,0.700102058 L6.28571429,0.785714286 L6.28571429,7.07142857 C6.28571429,7.50536659 5.93393802,7.85714286 5.5,7.85714286 C5.09499118,7.85714286 4.76155438,7.55070664 4.71889618,7.1570408 L4.71428571,7.07142857 L4.71428571,0.785714286 C4.71428571,0.351776268 5.06606198,0 5.5,0 Z" id="Path"></path>
                                <path d="M16.5,0 C16.9050088,0 17.2384456,0.306436216 17.2811038,0.700102058 L17.2857143,0.785714286 L17.2857143,7.07142857 C17.2857143,7.50536659 16.933938,7.85714286 16.5,7.85714286 C16.0949912,7.85714286 15.7615544,7.55070664 15.7188962,7.1570408 L15.7142857,7.07142857 L15.7142857,0.785714286 C15.7142857,0.351776268 16.066062,0 16.5,0 Z" id="Path"></path>
                                <path d="M13.3571429,3.14285714 C13.7910809,3.14285714 14.1428571,3.49463341 14.1428571,3.92857143 C14.1428571,4.33358025 13.8364209,4.66701705 13.4427551,4.70967525 L13.3571429,4.71428571 L5.5,4.71428571 C5.06606198,4.71428571 4.71428571,4.36250945 4.71428571,3.92857143 C4.71428571,3.52356261 5.02072193,3.19012581 5.41438777,3.14746761 L5.5,3.14285714 L13.3571429,3.14285714 Z" id="Path"></path>
                                <path d="M14.9285714,14.9285714 C15.3625094,14.9285714 15.7142857,15.2803477 15.7142857,15.7142857 C15.7142857,16.1192945 15.4078495,16.4527313 15.0141837,16.4953895 L14.9285714,16.5 L7.07142857,16.5 C6.63749055,16.5 6.28571429,16.1482237 6.28571429,15.7142857 C6.28571429,15.3092769 6.5921505,14.9758401 6.98581634,14.9331819 L7.07142857,14.9285714 L14.9285714,14.9285714 Z" id="Path"></path>
                                <path d="M21.2142857,9.42857143 C21.6482237,9.42857143 22,9.7803477 22,10.2142857 C22,10.6192945 21.6935638,10.9527313 21.2998979,10.9953895 L21.2142857,11 L0.785714286,11 C0.351776268,11 0,10.6482237 0,10.2142857 C0,9.8092769 0.306436216,9.47584009 0.700102058,9.43318189 L0.785714286,9.42857143 L21.2142857,9.42857143 Z" id="Path"></path>
                            </g>
                        </g>
                    </g>
                </g>
            </g>
        </g>
    </g>
</svg>