<?xml version="1.0" encoding="UTF-8"?>
<svg width="18px" height="15px" viewBox="0 0 18 15" version="1.1" xmlns="http://www.w3.org/2000/svg" xmlns:xlink="http://www.w3.org/1999/xlink">
    <title>Arrow/Full Arrow Right White</title>
    <g id="Design" stroke="none" stroke-width="1" fill="none" fill-rule="evenodd">
        <g id="Produktfamilien" transform="translate(-1247.000000, -6908.000000)" fill="#FFFFFF" fill-rule="nonzero" stroke="#FFFFFF" stroke-width="0.5">
            <g id="Group-6" transform="translate(160.000000, 6851.000000)">
                <g id="Seminarlist/Item-Copy" transform="translate(570.000000, 0.000000)">
                    <g id="Link-Block" transform="translate(498.000000, 0.000000)">
                        <g id="Group" transform="translate(17.000000, 56.000000)">
                            <g id="Icon-Arrow-Right" transform="translate(3.000000, 2.000000)">
                                <path d="M14.4668246,6 C14.7612893,6 15,6.22385763 15,6.5 C15,6.74545989 14.811389,6.94960837 14.5626636,6.99194433 L14.4668246,7 L0.533175355,7 C0.238710738,7 0,6.77614237 0,6.5 C0,6.25454011 0.188610953,6.05039163 0.437336411,6.00805567 L0.533175355,6 L14.4668246,6 Z" id="Path"></path>
                                <path d="M15.0947161,6.15532216 C15.3018123,5.94822595 15.6375816,5.94822595 15.8446778,6.15532216 C16.0287634,6.33940769 16.0492173,6.62516084 15.9060397,6.83183917 L15.8446778,6.9052839 L9.9052839,12.8446778 C9.69818768,13.0517741 9.36241838,13.0517741 9.15532216,12.8446778 C8.97123664,12.6605923 8.95078269,12.3748392 9.09396032,12.1681608 L9.15532216,12.0947161 L15.0947161,6.15532216 Z" id="Path"></path>
                                <path d="M9.15532216,0.155322161 C9.33940769,-0.0287633632 9.62516084,-0.0492173104 9.83183917,0.0939603199 L9.9052839,0.155322161 L15.8446778,6.0947161 C16.0517741,6.30181232 16.0517741,6.63758162 15.8446778,6.84467784 C15.6605923,7.02876336 15.3748392,7.04921731 15.1681608,6.90603968 L15.0947161,6.84467784 L9.15532216,0.905283899 C8.94822595,0.698187684 8.94822595,0.362418377 9.15532216,0.155322161 Z" id="Path"></path>
                            </g>
                        </g>
                    </g>
                </g>
            </g>
        </g>
    </g>
</svg>