<?xml version="1.0" encoding="UTF-8"?>
<svg width="17px" height="23px" viewBox="0 0 17 23" version="1.1" xmlns="http://www.w3.org/2000/svg" xmlns:xlink="http://www.w3.org/1999/xlink">
    <title>Icon / Location Marker</title>
    <g id="Design" stroke="none" stroke-width="1" fill="none" fill-rule="evenodd">
        <g id="Produktfamilien" transform="translate(-900.000000, -7078.000000)" fill="#8A8882" fill-rule="nonzero">
            <g id="Group-6" transform="translate(160.000000, 6851.000000)">
                <g id="Seminarlist/Item-Copy-2" transform="translate(570.000000, 145.000000)">
                    <g id="Item" transform="translate(24.000000, 24.000000)">
                        <g id="Icons" transform="translate(0.000000, 57.000000)">
                            <g id="Location" transform="translate(146.001164, 0.000000)">
                                <g id="Icon-/-Location-Marker" transform="translate(0.000000, 1.000000)">
                                    <path d="M8.0952381,0 C3.62436157,0 0,3.6243615 0,8.09523799 C0,9.62715556 0.849043776,11.7953974 2.35360766,14.514371 C2.77970548,15.2843939 3.25259389,16.0861383 3.76437935,16.9115345 C4.56988497,18.2106361 5.43178669,19.5054998 6.2936373,20.736829 L6.81197772,21.4693811 L7.44703759,22.3420808 C7.77081392,22.7748618 8.41966227,22.7748618 8.7434386,22.3420808 L9.06317012,21.9067179 L9.5455724,21.2350437 L9.89683889,20.736829 C10.7586895,19.5054998 11.6205912,18.2106361 12.4260968,16.9115345 C12.9378823,16.0861383 13.4107707,15.2843939 13.8368685,14.514371 C15.3414324,11.7953974 16.1904762,9.62715556 16.1904762,8.09523799 C16.1904762,3.6243615 12.5661146,0 8.0952381,0 Z M8.0952381,1.61904762 C11.6719393,1.61904762 14.5714286,4.51853682 14.5714286,8.09523799 C14.5714286,8.93010813 14.1758189,10.178929 13.448376,11.7304578 L13.2202519,12.2048864 L12.9726005,12.6968101 C12.886838,12.8636263 12.7978847,13.0332472 12.7058044,13.2055614 L12.4202463,13.7304727 C12.0078818,14.4756773 11.5484386,15.2546265 11.0500936,16.0583462 C10.2618493,17.3296092 9.41616169,18.6001138 8.57042302,19.8084238 L8.0952381,20.4800416 L7.9645724,20.2970722 C7.85344162,20.140622 7.7384495,19.9775771 7.62005318,19.8084238 C6.7743145,18.6001138 5.92862693,17.3296092 5.14038256,16.0583462 C4.64203759,15.2546265 4.18259435,14.4756773 3.77022994,13.7304727 L3.48467182,13.2055614 C3.39259152,13.0332472 3.30363823,12.8636263 3.21787572,12.6968101 L2.97022429,12.2048864 L2.7421002,11.7304578 C2.0146573,10.178929 1.61904762,8.93010813 1.61904762,8.09523799 C1.61904762,4.51853682 4.51853688,1.61904762 8.0952381,1.61904762 Z" id="Path"></path>
                                    <path d="M6.47619046,5.29096521 C5.4743203,5.86939522 4.85714286,6.93837796 4.85714286,8.09523799 C4.85714286,9.25209801 5.4743203,10.3210808 6.47619046,10.8995108 C7.47806062,11.4779408 8.71241557,11.4779408 9.71428573,10.8995108 C10.7161559,10.3210808 11.3333333,9.25209801 11.3333333,8.09523799 C11.3333333,6.93837796 10.7161559,5.86939522 9.71428573,5.29096521 C8.76250908,4.74145669 7.6009149,4.71398127 6.6281565,5.20853893 L6.47619046,5.29096521 Z M8.90476191,6.69310157 C9.40569699,6.98231658 9.71428571,7.51680795 9.71428571,8.09523799 C9.71428571,8.67366802 9.40569699,9.2081594 8.90476191,9.4973744 C8.40382683,9.78658941 7.78664936,9.78658941 7.28571428,9.4973744 C6.7847792,9.2081594 6.47619048,8.67366802 6.47619048,8.09523799 C6.47619048,7.51680795 6.7847792,6.98231658 7.28571428,6.69310157 C7.78664936,6.40388656 8.40382683,6.40388656 8.90476191,6.69310157 Z" id="Path"></path>
                                </g>
                            </g>
                        </g>
                    </g>
                </g>
            </g>
        </g>
    </g>
</svg>