
<svg width="27px" height="26px" viewBox="0 0 27 26" version="1.1" xmlns="http://www.w3.org/2000/svg" xmlns:xlink="http://www.w3.org/1999/xlink">
    <g id="Symbols" stroke="none" stroke-width="1" fill="none" fill-rule="evenodd">
        <g id="Footer" transform="translate(-1141.000000, -33.000000)" fill="#FFFFFF" fill-rule="nonzero">
            <g id="Social-Media" transform="translate(1104.000000, 32.000000)">
                <g id="Icon/Instagram" transform="translate(37.937500, 1.000000)">
                    <path d="M13,2.34325 C16.471,2.34325 16.8826667,2.35625 18.2541667,2.41908333 C21.7771667,2.57941667 23.42275,4.251 23.5830833,7.748 C23.6459167,9.11841667 23.6578333,9.53008333 23.6578333,13.0010833 C23.6578333,16.4731667 23.6448333,16.88375 23.5830833,18.2541667 C23.4216667,21.7479167 21.7804167,23.42275 18.2541667,23.5830833 C16.8826667,23.6459167 16.4731667,23.6589167 13,23.6589167 C9.529,23.6589167 9.11733333,23.6459167 7.74691667,23.5830833 C4.21525,23.4216667 2.57833333,21.7425 2.418,18.2530833 C2.35516667,16.8826667 2.34216667,16.4720833 2.34216667,13 C2.34216667,9.529 2.35625,9.11841667 2.418,7.74691667 C2.57941667,4.251 4.22066667,2.57833333 7.74691667,2.418 C9.11841667,2.35625 9.529,2.34325 13,2.34325 L13,2.34325 Z M13,-5.26199454e-16 C9.46941667,-5.26199454e-16 9.02741667,0.0151666667 7.64075,0.078 C2.91958333,0.294666667 0.29575,2.91416667 0.0790833333,7.63966667 C0.0151666667,9.02741667 -5.26199454e-16,9.46941667 -5.26199454e-16,13 C-5.26199454e-16,16.5305833 0.0151666667,16.9736667 0.078,18.3603333 C0.294666667,23.0815 2.91416667,25.7053333 7.63966667,25.922 C9.02741667,25.9848333 9.46941667,26 13,26 C16.5305833,26 16.9736667,25.9848333 18.3603333,25.922 C23.0771667,25.7053333 25.7075,23.0858333 25.9209167,18.3603333 C25.9848333,16.9736667 26,16.5305833 26,13 C26,9.46941667 25.9848333,9.02741667 25.922,7.64075 C25.7096667,2.92391667 23.0869167,0.29575 18.3614167,0.0790833333 C16.9736667,0.0151666667 16.5305833,-5.26199454e-16 13,-5.26199454e-16 Z M13,6.3245 C9.31341667,6.3245 6.3245,9.31341667 6.3245,13 C6.3245,16.6865833 9.31341667,19.6765833 13,19.6765833 C16.6865833,19.6765833 19.6755,16.6876667 19.6755,13 C19.6755,9.31341667 16.6865833,6.3245 13,6.3245 Z M13,17.3333333 C10.6069167,17.3333333 8.66666667,15.3941667 8.66666667,13 C8.66666667,10.6069167 10.6069167,8.66666667 13,8.66666667 C15.3930833,8.66666667 17.3333333,10.6069167 17.3333333,13 C17.3333333,15.3941667 15.3930833,17.3333333 13,17.3333333 Z M19.9398333,4.50125 C19.0775,4.50125 18.37875,5.2 18.37875,6.06125 C18.37875,6.9225 19.0775,7.62125 19.9398333,7.62125 C20.8010833,7.62125 21.49875,6.9225 21.49875,6.06125 C21.49875,5.2 20.8010833,4.50125 19.9398333,4.50125 Z" id="Shape"></path>
                </g>
            </g>
        </g>
    </g>
</svg>