<?xml version="1.0" encoding="UTF-8"?>
<svg width="30px" height="36px" viewBox="0 0 30 36" version="1.1" xmlns="http://www.w3.org/2000/svg" xmlns:xlink="http://www.w3.org/1999/xlink">
    <title>Shape</title>
    <g id="Design" stroke="none" stroke-width="1" fill="none" fill-rule="evenodd">
        <g id="Produktfamilien" transform="translate(-1037.000000, -6404.000000)" fill="#0E2249" fill-rule="nonzero">
            <g id="Section-/-Ansprechpartner" transform="translate(160.000000, 6108.000000)">
                <g id="Contact-Person" transform="translate(475.000000, 74.000000)">
                    <g id="Group-21" transform="translate(355.000000, 34.000000)">
                        <g id="Icon/Xing" transform="translate(47.000000, 188.000000)">
                            <path d="M12.709795,13.9071647 C12.5691608,14.1649942 10.7409155,17.3761429 7.23287228,23.5562369 C6.8500346,24.204717 6.38906678,24.5328636 5.84996883,24.5328636 L0.763696782,24.5328636 C0.162094712,24.5328636 -0.181677899,23.9468876 0.0995906011,23.4077896 L5.49057019,13.9306038 C5.50619621,13.9306038 5.50619621,13.9227908 5.49057019,13.9071647 L2.06065709,8.00052623 C1.72469749,7.39111114 2.08409613,6.89889127 2.72476327,6.89889127 L7.81103531,6.89889127 C8.38138533,6.89889127 8.85016616,7.21922484 9.21737781,7.85207896 L12.709795,13.9071647 Z M29.8906126,1.10163496 L18.6398726,20.8685601 L18.6398726,20.8919991 L25.7965933,33.9084803 C26.1013008,34.4632043 25.8122193,35.0101153 25.1324871,35.0101153 L20.0384021,35.0101153 C19.444613,35.0101153 18.9758322,34.6975947 18.6320596,34.0569276 L11.4128347,20.8919991 C11.6706642,20.4388443 15.4365369,13.7977825 22.7260788,0.953187695 C23.0854775,0.32033357 23.5386323,0 24.0933563,0 L29.2265064,0 C29.8515475,0 30.1875071,0.523471931 29.8906126,1.10163496 L29.8906126,1.10163496 Z" id="Shape"></path>
                        </g>
                    </g>
                </g>
            </g>
        </g>
    </g>
</svg>