<?xml version="1.0" encoding="utf-8"?>
<!-- Generator: Adobe Illustrator 26.3.1, SVG Export Plug-In . SVG Version: 6.00 Build 0)  -->
<svg version="1.1" id="Ebene_1" xmlns="http://www.w3.org/2000/svg" xmlns:xlink="http://www.w3.org/1999/xlink" x="0px" y="0px"
	 viewBox="0 0 26 26" style="enable-background:new 0 0 26 26;" xml:space="preserve">
<path id="Path" style="fill:none;stroke:#0E2249;stroke-width:1.2;stroke-linecap:round;stroke-linejoin:round;" d="M17.2,10.4
	l-4.2,5.7c-0.1,0.2-0.4,0.3-0.6,0.3c-0.2,0-0.5-0.1-0.6-0.2l-2.5-2.5"/>
<path id="Path_00000138530837151942774020000004357532277182383015_" style="fill:none;stroke:#0E2249;stroke-width:1.2;stroke-linecap:round;stroke-linejoin:round;" d="
	M11.6,1.7C12,1.2,12.5,1,13,1s1,0.2,1.4,0.7l1.6,2c0.4,0.5,1,0.7,1.5,0.6L20.1,4c0.5-0.1,1,0.1,1.4,0.5C21.9,4.9,22,5.4,22,5.9
	l-0.3,2.6c-0.1,0.6,0.2,1.2,0.6,1.5l2,1.6C24.8,12,25,12.5,25,13c0,0.5-0.2,1-0.7,1.4l-2,1.6c-0.5,0.4-0.7,1-0.6,1.5l0.3,2.6
	c0.1,0.5-0.1,1-0.5,1.4c-0.4,0.4-0.9,0.6-1.4,0.5l-2.6-0.3c-0.6-0.1-1.2,0.2-1.5,0.6l-1.6,2C14,24.8,13.5,25,13,25s-1-0.2-1.4-0.7
	l-1.6-2c-0.4-0.5-1-0.7-1.5-0.6L5.9,22c-0.5,0.1-1-0.1-1.4-0.5C4.1,21.1,4,20.6,4,20.1l0.3-2.6c0.1-0.6-0.2-1.2-0.6-1.5l-2-1.6
	C1.2,14,1,13.5,1,13c0-0.5,0.2-1,0.7-1.4l2-1.6c0.5-0.4,0.7-1,0.6-1.5L4,5.9C4,5.4,4.1,4.9,4.5,4.5C4.9,4.1,5.4,4,5.9,4l2.6,0.3
	C9.1,4.4,9.7,4.1,10,3.7L11.6,1.7z"/>
</svg>
