<?xml version="1.0" encoding="utf-8"?>
<!-- Generator: Adobe Illustrator 26.3.1, SVG Export Plug-In . SVG Version: 6.00 Build 0)  -->
<svg version="1.1" id="Ebene_1" xmlns="http://www.w3.org/2000/svg" xmlns:xlink="http://www.w3.org/1999/xlink" x="0px" y="0px"
	 viewBox="0 0 26 26" style="enable-background:new 0 0 26 26;" xml:space="preserve">
<path id="Path" style="fill:#0E2249;" d="M13.1,2C8.6,2,5,5.6,5,10.1c0,1.5,0.8,3.7,2.4,6.4c0.4,0.8,0.9,1.6,1.4,2.4
	c0.8,1.3,1.7,2.6,2.5,3.8l0.5,0.7l0.6,0.9c0.3,0.4,1,0.4,1.3,0l0.3-0.4l0.5-0.7l0.4-0.5c0.9-1.2,1.7-2.5,2.5-3.8
	c0.5-0.8,1-1.6,1.4-2.4c1.5-2.7,2.4-4.9,2.4-6.4C21.2,5.6,17.6,2,13.1,2z M13.1,3.6c3.6,0,6.5,2.9,6.5,6.5c0,0.8-0.4,2.1-1.1,3.6
	l-0.2,0.5L18,14.7c-0.1,0.2-0.2,0.3-0.3,0.5l-0.3,0.5c-0.4,0.7-0.9,1.5-1.4,2.3c-0.8,1.3-1.6,2.5-2.5,3.8l-0.5,0.7L13,22.3
	c-0.1-0.2-0.2-0.3-0.3-0.5c-0.8-1.2-1.7-2.5-2.5-3.8c-0.5-0.8-1-1.6-1.4-2.3l-0.3-0.5c-0.1-0.2-0.2-0.3-0.3-0.5L8,14.2l-0.2-0.5
	c-0.7-1.6-1.1-2.8-1.1-3.6C6.6,6.5,9.5,3.6,13.1,3.6z"/>
<path id="Path_00000085244033499933377130000013483354820963428513_" style="fill:#0E2249;" d="M11.5,7.3c-1,0.6-1.6,1.6-1.6,2.8
	s0.6,2.2,1.6,2.8c1,0.6,2.2,0.6,3.2,0c1-0.6,1.6-1.6,1.6-2.8s-0.6-2.2-1.6-2.8c-1-0.5-2.1-0.6-3.1-0.1L11.5,7.3z M13.9,8.7
	c0.5,0.3,0.8,0.8,0.8,1.4s-0.3,1.1-0.8,1.4c-0.5,0.3-1.1,0.3-1.6,0s-0.8-0.8-0.8-1.4s0.3-1.1,0.8-1.4S13.4,8.4,13.9,8.7z"/>
</svg>
