<svg width="24" height="24" viewBox="0 0 24 24" xmlns="http://www.w3.org/2000/svg" xmlns:xlink="http://www.w3.org/1999/xlink">
  <defs>
    <circle id="a" cx="12" cy="12" r="12"/>
  </defs>
  <g fill="none" fill-rule="evenodd">
    <mask id="b" fill="#fff">
      <use xlink:href="#a"/>
    </mask>
    <use fill="#D8D8D8" xlink:href="#a"/>
    <path fill="#012169" fill-rule="nonzero" mask="url(#b)" d="M0 0h24v24H0z"/>
    <path fill="#FFF" fill-rule="nonzero" mask="url(#b)" d="m-.25 0 12.2 9.05L24.1 0H28v3.1l-12 8.95 12 8.9V24h-4l-12-8.95L.05 24H-4v-3l11.95-8.9L-4 3.2V0z"/>
    <path d="M17.2 14.05 28 22v2l-13.55-9.95h2.75Zm-9.2 1 .3 1.75-9.6 7.2H-4l12-8.95ZM28 0v.15l-12.45 9.4.1-2.2L25.5 0H28ZM-4 0 7.95 8.8h-3L-4 2.1V0Z" fill="#C8102E" fill-rule="nonzero" mask="url(#b)"/>
    <path d="M8.05 0v24h8V0h-8ZM-4 8v8h32V8H-4Z" fill="#FFF" fill-rule="nonzero" mask="url(#b)"/>
    <path d="M-4 9.65v4.8h32v-4.8H-4ZM9.65 0v24h4.8V0h-4.8Z" fill="#C8102E" fill-rule="nonzero" mask="url(#b)"/>
  </g>
</svg>
