<svg width="24" height="24" viewBox="0 0 24 24" xmlns="http://www.w3.org/2000/svg" xmlns:xlink="http://www.w3.org/1999/xlink">
  <defs>
    <circle id="a" cx="12" cy="12" r="12"/>
  </defs>
  <g fill="none" fill-rule="evenodd">
    <mask id="b" fill="#fff">
      <use xlink:href="#a"/>
    </mask>
    <use fill="#D8D8D8" xlink:href="#a"/>
    <g mask="url(#b)" fill-rule="nonzero">
      <path fill="#FFF" d="M3.557 0h16.904v24H3.557z"/>
      <path d="M-5 0h8.503v24H-5V0Zm25.514 0h8.503v24H20.52l-.005-24ZM6.053 11.597l-.667.225 3.075 2.695c.235.69-.08.89-.281 1.256l3.333-.421-.08 3.351.695-.019-.155-3.328 3.344.399c-.207-.436-.39-.666-.202-1.36l3.07-2.554-.535-.197c-.441-.338.188-1.627.282-2.442 0 0-1.79.614-1.906.29l-.46-.876-1.63 1.79c-.178.042-.253-.028-.296-.178l.752-3.74-1.193.67c-.099.047-.197.01-.263-.108l-1.15-2.297-1.184 2.386c-.089.084-.178.094-.253.038l-1.136-.638.685 3.708c-.056.15-.188.187-.338.108L7.997 8.587c-.202.329-.338.858-.61.98-.268.113-1.175-.225-1.78-.356.206.745.854 1.983.446 2.39v-.004Z" fill="#D52B1E"/>
    </g>
  </g>
</svg>
