<?xml version="1.0" encoding="utf-8"?>
<!-- Generator: Adobe Illustrator 26.3.1, SVG Export Plug-In . SVG Version: 6.00 Build 0)  -->
<svg version="1.1" id="Ebene_1" xmlns="http://www.w3.org/2000/svg" xmlns:xlink="http://www.w3.org/1999/xlink" x="0px" y="0px"
	 viewBox="0 0 26 26" style="enable-background:new 0 0 26 26;" xml:space="preserve">
<path id="Path" style="fill:none;stroke:#0E2249;stroke-width:1.2;stroke-linecap:round;stroke-linejoin:round;" d="M16,18.5
	l-0.6,5.2c-0.1,0.3,0.1,0.6,0.3,0.7c0.3,0.1,0.6,0.1,0.8-0.1l1.8-1.8l1.8,1.8c0.2,0.2,0.5,0.3,0.8,0.1s0.4-0.4,0.3-0.7l-0.6-5.3"/>
<circle id="Oval" style="fill:none;stroke:#0E2249;stroke-width:1.2;stroke-linecap:round;stroke-linejoin:round;" cx="18.2" cy="15.5" r="3.8"/>
<path id="Path_00000110465996599278134300000006692786345424973200_" style="fill:none;stroke:#0E2249;stroke-width:1.2;stroke-linecap:round;stroke-linejoin:round;" d="
	M11.5,21.5h-6C4.7,21.5,4,20.8,4,20V3.5C4,2.7,4.7,2,5.5,2h10.6c0.4,0,0.8,0.2,1.1,0.4l2.9,2.9c0.3,0.3,0.4,0.7,0.4,1.1v3.1"/>
</svg>
