<?xml version="1.0" encoding="utf-8"?>
<!-- Generator: Adobe Illustrator 26.3.1, SVG Export Plug-In . SVG Version: 6.00 Build 0)  -->
<svg version="1.1" id="Ebene_1" xmlns="http://www.w3.org/2000/svg" xmlns:xlink="http://www.w3.org/1999/xlink" x="0px" y="0px"
	 viewBox="0 0 26 26" style="enable-background:new 0 0 26 26;" xml:space="preserve">
<path id="Path" style="fill:#0E2249;" d="M21.9,4.9c1.3,0,2.3,1,2.4,2.2l0,0.1v14.1c0,1.3-1,2.3-2.2,2.4l-0.1,0H4.6
	c-1.3,0-2.3-1-2.4-2.2l0-0.1V7.2c0-1.3,1.1-2.4,2.4-2.4c0.4,0,0.8,0.4,0.8,0.8c0,0.4-0.3,0.7-0.7,0.8l-0.1,0c-0.4,0-0.7,0.3-0.8,0.7
	l0,0.1v14.1c0,0.4,0.3,0.7,0.7,0.8l0.1,0h17.3c0.4,0,0.7-0.3,0.8-0.7l0-0.1V7.2c0-0.4-0.3-0.7-0.7-0.8l-0.1,0h-3.1
	c-0.4,0-0.8-0.4-0.8-0.8c0-0.4,0.3-0.7,0.7-0.8l0.1,0H21.9z"/>
<path id="Path_00000121253122225425821230000002516245902987007674_" style="fill:#0E2249;" d="M7.7,1.7c0.4,0,0.7,0.3,0.8,0.7
	l0,0.1v6.3c0,0.4-0.4,0.8-0.8,0.8C7.3,9.6,7,9.3,7,8.9l0-0.1V2.5C6.9,2.1,7.3,1.7,7.7,1.7z"/>
<path id="Path_00000155104775206397940560000005643299260856460978_" style="fill:#0E2249;" d="M18.7,1.7c0.4,0,0.7,0.3,0.8,0.7
	l0,0.1v6.3c0,0.4-0.4,0.8-0.8,0.8c-0.4,0-0.7-0.3-0.8-0.7l0-0.1V2.5C17.9,2.1,18.3,1.7,18.7,1.7z"/>
<path id="Path_00000022560990357844858020000017214049395704022669_" style="fill:#0E2249;" d="M15.6,4.9c0.4,0,0.8,0.4,0.8,0.8
	c0,0.4-0.3,0.7-0.7,0.8l-0.1,0H7.7c-0.4,0-0.8-0.4-0.8-0.8c0-0.4,0.3-0.7,0.7-0.8l0.1,0H15.6z"/>
<path id="Path_00000163786299572980128400000011336423874483195527_" style="fill:#0E2249;" d="M17.2,16.6c0.4,0,0.8,0.4,0.8,0.8
	c0,0.4-0.3,0.7-0.7,0.8l-0.1,0H9.3c-0.4,0-0.8-0.4-0.8-0.8c0-0.4,0.3-0.7,0.7-0.8l0.1,0H17.2z"/>
<path id="Path_00000005945400331165256230000005282203383426782857_" style="fill:#0E2249;" d="M23.4,11.1c0.4,0,0.8,0.4,0.8,0.8
	c0,0.4-0.3,0.7-0.7,0.8l-0.1,0H3c-0.4,0-0.8-0.4-0.8-0.8c0-0.4,0.3-0.7,0.7-0.8l0.1,0H23.4z"/>
</svg>
