<?xml version="1.0" encoding="UTF-8"?>
<svg width="32px" height="32px" viewBox="0 0 32 32" version="1.1" xmlns="http://www.w3.org/2000/svg" xmlns:xlink="http://www.w3.org/1999/xlink">
    <title>Shape</title>
    <g id="Design" stroke="none" stroke-width="1" fill="none" fill-rule="evenodd">
        <g id="Produktfamilien" transform="translate(-990.000000, -6404.000000)" fill="#0E2249" fill-rule="nonzero">
            <g id="Section-/-Ansprechpartner" transform="translate(160.000000, 6108.000000)">
                <g id="Contact-Person" transform="translate(475.000000, 74.000000)">
                    <g id="Group-21" transform="translate(355.000000, 34.000000)">
                        <g id="icon/Linkedin" transform="translate(0.000000, 188.000000)">
                            <path d="M7.16285714,32 L0.528571429,32 L0.528571429,10.6352374 L7.16285714,10.6352374 L7.16285714,32 Z M3.84214286,7.72088658 C1.72071429,7.72088658 0,5.9637045 0,3.84222857 C0,1.72022432 1.72018597,0 3.84214286,0 C5.96409974,0 7.68428571,1.72022432 7.68428571,3.84222857 C7.68428571,5.9637045 5.96285714,7.72088658 3.84214286,7.72088658 Z M31.9928571,32 L25.3728571,32 L25.3728571,21.5997678 C25.3728571,19.1211411 25.3228571,15.9424987 21.9235714,15.9424987 C18.4742857,15.9424987 17.9457143,18.6354159 17.9457143,21.4211924 L17.9457143,32 L11.3185714,32 L11.3185714,10.6352374 L17.6814286,10.6352374 L17.6814286,13.5495881 L17.7742857,13.5495881 C18.66,11.8709792 20.8235714,10.0995111 24.0514286,10.0995111 C30.7657143,10.0995111 32,14.5210384 32,20.2640237 L32,32 L31.9928571,32 Z" id="Shape"></path>
                        </g>
                    </g>
                </g>
            </g>
        </g>
    </g>
</svg>