
<svg width="22px" height="26px" viewBox="0 0 22 26" version="1.1" xmlns="http://www.w3.org/2000/svg" xmlns:xlink="http://www.w3.org/1999/xlink">
    <g id="Symbols" stroke="none" stroke-width="1" fill="none" fill-rule="evenodd">
        <g id="Footer" transform="translate(-1104.000000, -33.000000)" fill="#FFFFFF" fill-rule="nonzero">
            <g id="Social-Media" transform="translate(1104.000000, 32.000000)">
                <g id="Icon/Youtube" transform="translate(0.000000, 1.000000)">
                    <path d="M2.87302993,7.50510765e-14 L4.43304618,7.50510765e-14 L5.50339066,4.01054178 L6.49573433,7.50510765e-14 L8.07091741,7.50510765e-14 L6.26714862,5.96381212 L6.26714862,10.0339379 L4.71688247,10.0339379 L4.71688247,5.96381212 L2.87302993,7.50510765e-14 Z M10.0166043,2.57077678 C8.80434171,2.57077678 8.00050001,3.3724518 8.00050001,4.55871415 L8.00050001,8.18683528 C8.00050001,9.4911822 8.68192377,10.1704393 10.0166043,10.1704393 C11.1237825,10.1704393 11.9947916,9.4305149 11.9947916,8.18683528 L11.9947916,4.55871415 C11.9947916,3.40061876 11.131366,2.57077678 10.0166043,2.57077678 Z M10.5918603,8.12508464 C10.5918603,8.52808883 10.3860249,8.82492526 10.015521,8.82492526 C9.63526703,8.82492526 9.41534808,8.51400535 9.41534808,8.12508464 L9.41534808,4.6811321 C9.41534808,4.27596121 9.60168335,3.97587475 9.98843738,3.97587475 C10.4109418,3.97587475 10.5918603,4.26729445 10.5918603,4.6811321 L10.5918603,8.12508464 L10.5918603,8.12508464 Z M15.714997,2.63252742 L15.714997,8.25075261 C15.5470786,8.46092147 15.1733247,8.80542506 14.9057386,8.80542506 C14.6121522,8.80542506 14.5395681,8.60392296 14.5395681,8.30708653 L14.5395681,2.63252742 L13.1637205,2.63252742 L13.1637205,8.81842519 C13.1637205,9.54968281 13.3868894,10.1401056 14.1246471,10.1401056 C14.5406515,10.1401056 15.1191575,9.9234367 15.714997,9.21601267 L15.714997,10.0328545 L17.0908447,10.0328545 L17.0908447,2.63252742 L15.714997,2.63252742 Z M18.1016052,17.6455171 C17.6162668,17.6455171 17.5155158,17.9867707 17.5155158,18.4721091 L17.5155158,19.1860332 L18.6736198,19.1860332 L18.6736198,18.4710257 C18.6746945,17.9943541 18.5739435,17.6455171 18.1016052,17.6455171 Z M13.0066355,17.6888509 C12.9156345,17.7354347 12.8257169,17.8069355 12.7357993,17.9033532 L12.7357993,22.2963156 C12.8430504,22.4111501 12.9459682,22.4934843 13.0467192,22.5444015 C13.2601381,22.652736 13.5721414,22.6603194 13.7173096,22.4718174 C13.7931437,22.3721497 13.8310607,22.2107314 13.8310607,21.9853957 L13.8310607,18.3464411 C13.8310607,18.1081053 13.7844769,17.9282701 13.6913093,17.8047688 C13.5320576,17.5956833 13.2363045,17.5729331 13.0066355,17.6888509 L13.0066355,17.6888509 Z M18.23594,12.0608756 C15.4149106,11.8691236 6.24764841,11.8691236 3.43095241,12.0608756 C0.38242065,12.2688778 0.022750237,14.1105637 0,18.9585308 C0.022750237,23.7978312 0.379170616,25.6481838 3.43095241,25.856186 C6.24764841,26.047938 15.4149106,26.047938 18.23594,25.856186 C21.2844717,25.6481838 21.6441421,23.8054146 21.6668924,18.9585308 C21.6441421,14.1192304 21.2877217,12.2688778 18.23594,12.0608756 Z M4.88480088,23.6374962 L3.40820217,23.6374962 L3.40820217,15.4690778 L1.88068626,15.4690778 L1.88068626,14.0823967 L6.41123345,14.0823967 L6.41123345,15.4690778 L4.88371754,15.4690778 L4.88371754,23.6374962 L4.88480088,23.6374962 Z M10.1346889,23.6374962 L8.82384192,23.6374962 L8.82384192,22.8596548 C8.58225607,23.1467411 8.33092011,23.3655767 8.06983406,23.5150783 C7.36349337,23.9202492 6.39389994,23.9104991 6.39389994,22.4804842 L6.39389994,16.5892561 L7.70366358,16.5892561 L7.70366358,21.9929791 C7.70366358,22.2768154 7.77191429,22.467484 8.05250055,22.467484 C8.30816988,22.467484 8.66350691,22.1392306 8.82275857,21.9398952 L8.82275857,16.5892561 L10.1336056,16.5892561 L10.1336056,23.6374962 L10.1346889,23.6374962 Z M15.1798248,22.1771477 C15.1798248,23.0492401 14.8537381,23.7274138 13.9816456,23.7274138 C13.501724,23.7274138 13.1019698,23.551912 12.7368827,23.0958239 L12.7368827,23.6374962 L11.4141189,23.6374962 L11.4141189,14.0823967 L12.7368827,14.0823967 L12.7368827,17.1590954 C13.0326358,16.7983416 13.4345566,16.5004219 13.9025615,16.5004219 C14.8624048,16.5004219 15.1809081,17.311847 15.1809081,18.267357 L15.1809081,22.1771477 L15.1798248,22.1771477 Z M20.0234586,20.2791279 L17.5165991,20.2791279 L17.5165991,21.6094751 C17.5165991,22.1381473 17.5620996,22.5953187 18.0886051,22.5953187 C18.6421942,22.5953187 18.6746945,22.2226482 18.6746945,21.6094751 L18.6746945,21.1198033 L20.0234586,21.1198033 L20.0234586,21.6495588 C20.0234586,23.0069897 19.4406192,23.8303316 18.0593548,23.8303316 C16.8080918,23.8303316 16.1678351,22.9181554 16.1678351,21.6495588 L16.1678351,18.4851092 C16.1678351,17.2620131 16.9760102,16.4115876 18.1579391,16.4115876 C19.4157022,16.4115876 20.0223752,17.2110959 20.0223752,18.4851092 L20.0223752,20.2791279 L20.0234586,20.2791279 Z" id="Shape"></path>
                </g>
            </g>
        </g>
    </g>
</svg>