
<svg width="18px" height="18px" viewBox="0 0 18 18" version="1.1" xmlns="http://www.w3.org/2000/svg" xmlns:xlink="http://www.w3.org/1999/xlink">
    <g id="Symbols" stroke="none" stroke-width="1" fill="none" fill-rule="evenodd">
        <g id="Topbar" transform="translate(-939.000000, -23.000000)" fill="#FFFFFF" fill-rule="nonzero">
            <g id="Links" transform="translate(939.466667, 21.000000)">
                <g id="Icon/Globe" transform="translate(0.000000, 2.466667)">
                    <path d="M4.26666663,1.14324991 C1.62644411,2.66758311 0,5.48466703 0,8.53333345 C0,13.2461633 3.82050347,17.0666668 8.53333333,17.0666668 C13.2461632,17.0666668 17.0666667,13.2461633 17.0666667,8.53333345 C17.0666667,5.48466703 15.4402226,2.66758311 12.8,1.14324991 C10.1597775,-0.381083303 6.90688917,-0.381083303 4.26666663,1.14324991 Z M12.1904762,2.19897611 C14.4535241,3.50554742 15.847619,5.92019079 15.847619,8.53333345 C15.847619,12.5729019 12.5729018,15.8476192 8.53333333,15.8476192 C4.49376488,15.8476192 1.21904762,12.5729019 1.21904762,8.53333345 C1.21904762,5.92019079 2.61314258,3.50554742 4.87619044,2.19897611 C7.13923834,0.892404788 9.92742833,0.892404788 12.1904762,2.19897611 Z" id="Path"></path>
                    <path d="M16.4571429,7.92380964 C16.7937736,7.92380964 17.0666667,8.19670275 17.0666667,8.53333345 C17.0666667,8.84752211 16.8289465,9.10618824 16.5235572,9.13928066 L16.4571429,9.14285726 L0.60952381,9.14285726 C0.272893105,9.14285726 0,8.86996416 0,8.53333345 C0,8.21914479 0.237720216,7.96047867 0.543109475,7.92738624 L0.60952381,7.92380964 L16.4571429,7.92380964 Z" id="Path"></path>
                    <path d="M8.06039962,0.225007378 C6.14845626,2.5765901 5.03363337,5.47512959 4.87700498,8.50183345 L4.87700498,8.56483345 C5.03363337,11.5915373 6.14845626,14.4900768 8.06039962,16.8416595 C8.30432109,17.1416692 8.76234558,17.1416692 9.00626705,16.8416595 C10.9182104,14.4900768 12.0330333,11.5915373 12.1896617,8.56483345 L12.1896617,8.50183345 C12.0330333,5.47512959 10.9182104,2.5765901 9.00626705,0.225007378 C8.76234558,-0.0750023018 8.30432109,-0.0750023018 8.06039962,0.225007378 Z M8.53333333,1.61280012 L8.54751146,1.63222971 C9.94658995,3.58688323 10.7817499,5.89293516 10.9556473,8.2972911 L10.9696,8.53333345 L10.9556473,8.7693758 C10.7881906,11.0846815 10.0075466,13.3088302 8.70063903,15.2158202 L8.53333333,15.4533335 L8.51915521,15.4344372 C7.12007672,13.4797837 6.28491676,11.1737317 6.11101934,8.7693758 L6.09653333,8.53280012 L6.0944236,8.56483345 C6.21920507,6.15354291 7.00885442,3.83118251 8.36602764,1.85084666 L8.53333333,1.61280012 Z" id="Path"></path>
                </g>
            </g>
        </g>
    </g>
</svg>