
<svg width="25px" height="18px" viewBox="0 0 25 18" version="1.1" xmlns="http://www.w3.org/2000/svg" xmlns:xlink="http://www.w3.org/1999/xlink">
    <g id="Symbols" stroke="none" stroke-width="1" fill="none" fill-rule="evenodd">
        <g id="Footer-Links" transform="translate(-1049.000000, -463.000000)" fill="#8A8882" fill-rule="nonzero">
            <g id="Kontakt-Copy" transform="translate(764.000000, 396.000000)">
                <g id="Mail" transform="translate(268.000000, 52.000000)">
                    <g id="Icon/Mail" transform="translate(17.000000, 15.000000)">
                        <path d="M23.918051,0.440552378 L1.08194898,0.440552378 C0.807774399,0.440552378 0.585511983,0.662814794 0.585511983,0.936989379 L0.585511983,16.8229734 C0.585511983,17.097148 0.807774399,17.3194104 1.08194898,17.3194104 L23.918051,17.3194104 C24.1922256,17.3194104 24.414488,17.097148 24.414488,16.8229734 L24.414488,0.936989379 C24.414488,0.662814794 24.1922256,0.440552378 23.918051,0.440552378 Z M23.4215005,1.43331291 L23.4215005,16.3264229 L1.57832925,16.3264229 L1.57832925,1.43331291 L23.4215005,1.43331291 Z" id="Path"></path>
                        <path d="M23.0190794,1.13046253 C23.2313663,0.956951851 23.5441171,0.988386229 23.7176278,1.20067318 C23.8844649,1.40479524 23.8618189,1.70180176 23.6711078,1.87859681 L23.6474171,1.89922157 L12.8141689,10.7536719 C12.6400734,10.8959671 12.3934727,10.9027431 12.212472,10.7739998 L12.1858311,10.7536719 L1.3525829,1.89922157 C1.14029595,1.72571089 1.10886157,1.41296012 1.28237225,1.20067318 C1.44920944,0.996551111 1.74478192,0.959637413 1.95599379,1.11135021 L1.98092064,1.13046253 L12.5,9.72817947 L23.0190794,1.13046253 Z" id="Path"></path>
                    </g>
                </g>
            </g>
        </g>
    </g>
</svg>